# AST/ASF file generated using VICON BodyLanguage
# -----------------------------------------------
:version 1.10
:name VICON
:units
  mass 1.0
  length 0.45
  angle deg
:documentation
   .ast/.asf automatically generated from VICON data using
   VICON BodyBuilder and BodyLanguage model FoxedUp or BRILLIANT.MOD
:root
   order TX TY TZ RX RY RZ
   axis XYZ
   position 0 0 0  
   orientation 0 0 0 
:bonedata
  begin
     id 1 
     name lhipjoint
     direction 0.543289 -0.788407 0.288535 
     length 2.57127 
     axis 0 0 0  XYZ
  end
  begin
     id 2 
     name lfemur
     direction 0.34202 -0.939693 0  
     length 8.47298  
     axis 0 0 20  XYZ
    dof rx ry rz
    limits (-160.0 20.0)
           (-70.0 70.0)
           (-60.0 70.0)
  end
  begin
     id 3 
     name ltibia
     direction 0.34202 -0.939693 0   
     length 8.13367   
     axis 0 0 20   XYZ
    dof rx
    limits (-10.0 170.0)
  end
  begin
     id 4 
     name lfoot
     direction 0.114037 -0.313314 0.942778   
     length 2.67113   
     axis -90 7.62852e-016 20   XYZ
    dof rx rz
    limits (-45.0 90.0)
           (-70.0 20.0)
  end
  begin
     id 5 
     name ltoes
     direction 1.536e-011 -4.21847e-011 1   
     length 1.32217   
     axis -90 7.62852e-016 20   XYZ
    dof rx
    limits (-90.0 20.0)
  end
  begin
     id 6 
     name rhipjoint
     direction -0.571293 -0.770752 0.282074   
     length 2.63017  
     axis 0 0 0  XYZ 
  end
  begin
     id 7 
     name rfemur
     direction -0.34202 -0.939693 0   
     length 8.60885   
     axis 0 0 -20   XYZ
    dof rx ry rz
    limits (-160.0 20.0)
           (-70.0 70.0)
           (-70.0 60.0)
  end
  begin
     id 8 
     name rtibia
     direction -0.34202 -0.939693 0   
     length 8.07673   
     axis 0 0 -20   XYZ
    dof rx
    limits (-10.0 170.0)
 end
 begin
     id 9 
     name rfoot
     direction -0.121336 -0.333368 0.934956   
     length 2.81602  
     axis -90 -7.62852e-016 -20   XYZ
    dof rx rz
    limits (-45.0 90.0)
           (-20.0 70.0)
  end
  begin
     id 10 
     name rtoes
     direction -1.53491e-011 -4.21808e-011 1   
     length 1.38905   
     axis -90 -7.62852e-016 -20   XYZ
    dof rx
    limits (-90.0 20.0)
  end
  begin
     id 11 
     name lowerback
     direction 0.0136776 0.999869 -0.00861835   
     length 2.14087   
     axis 0 0 0   XYZ
    dof rx ry rz
    limits (-20.0 45.0)
           (-30.0 30.0)
           (-30.0 30.0)
  end
  begin
     id 12 
     name upperback
     direction -0.00789158 0.999804 0.0181308   
     length 2.14151   
     axis 0 0 0   XYZ
    dof rx ry rz
    limits (-20.0 45.0)
           (-30.0 30.0)
           (-30.0 30.0)
  end
  begin
     id 13 
     name thorax
     direction -0.0135231 0.999666 0.0220247   
     length 2.13644   
     axis 0 0 0   XYZ
    dof rx ry rz
    limits (-20.0 45.0)
           (-30.0 30.0)
           (-30.0 30.0)
  end
  begin
     id 14 
     name lowerneck
     direction -0.0392259 0.997317 0.0618018   
     length 1.65045   
     axis 0 0 0   XYZ
    dof rx ry rz
    limits (-20.0 45.0)
           (-30.0 30.0)
           (-30.0 30.0)
  end
  begin
     id 15 
     name upperneck
     direction 0.0765547 0.994276 -0.0745319   
     length 1.66045   
     axis 0 0 0   XYZ
    dof rx ry rz
    limits (-20.0 45.0)
           (-30.0 30.0)
           (-30.0 30.0)
  end
  begin
     id 16
     name head
     direction 0.0241564 0.999031 -0.036785  
     length 1.66594  
     axis 0 0 0   XYZ
    dof rx ry rz
    limits (-20.0 45.0)
           (-30.0 30.0)
           (-30.0 30.0)
  end
  begin
     id 17 
     name lclavicle
     direction 0.967398 0.249018 0.0461573  
     length 3.75176  
     axis 0 0 0   XYZ
    dof ry rz
    limits (-20.0 10.0)
           (0.0 20.0)
  end
  begin
     id 18 
     name lhumerus
     direction 1 -4.48963e-011 -3.05005e-027   
     length 5.93342   
     axis 180 -30 -90   XYZ
    dof rx ry rz
    limits (-60.0 90.0)
           (-90.0 90.0)
           (-90.0 90.0)
  end
  begin
     id 19
     name lradius
     direction 1 -4.48957e-011 1.07006e-026   
     length 3.94763   
     axis 180 -30 -90   XYZ
    dof rx
    limits (-10.0 170.0)
  end
  begin
     id 20
     name lwrist
     direction 1 -4.48978e-011 1.92422e-026   
     length 1.97382   
     axis -1.18182e-014 90 90   XYZ
    dof ry
    limits (-180.0 0.0)
 end
  begin
     id 21 
     name lhand
     direction 1 -4.48931e-011 3.84844e-026   
     length 0.560187   
     axis -2.45563e-014 90 90   XYZ
    dof rx rz
    limits (-90.0 90.0)
           (-45.0 45.0)
  end
  begin
     id 22 
     name lfingers
     direction 1 -4.48952e-011 7.69687e-026   
     length 0.451637   
     axis -4.91126e-014 90 90   XYZ
    dof rx
    limits (0.0 90.0)
  end
  begin
     id 23
     name lthumb
     direction 0.707107 -6.34901e-011 0.707107   
     length 0.648463   
     axis -90 45 2.85299e-015   XYZ
    dof rx rz
    limits (-45.0 45.0)
           (-45.0 45.0)
  end
  begin
     id 24 
     name rclavicle
     direction -0.965946 0.258716 0.00371831   
     length 3.63667  
     axis 0 0 0   XYZ 
    dof ry rz
    limits (-10.0 20.0)
           (-20.0 0.0)
  end
  begin
     id 25 
     name rhumerus
     direction -1 -4.48966e-011 -1.78361e-028  
     length 6.28647   
     axis 180 30 90   XYZ
    dof rx ry rz
    limits (-90.0 60.0)
           (-90.0 90.0)
           (-90.0 90.0)
  end
  begin
     id 26 
     name rradius
     direction -1 -4.48961e-011 1.05248e-026   
     length 3.81645   
     axis 180 30 90   XYZ
    dof rx
    limits (-10.0 170.0)
  end
  begin
     id 27 
     name rwrist
     direction -1 -4.48979e-011 1.92422e-026   
     length 1.90822   
     axis -1.18182e-014 -90 -90   XYZ
    dof ry
    limits (-180.0 0.0)
  end
  begin
     id 28
     name rhand
     direction -1 -4.48937e-011 3.84844e-026   
     length 0.646185   
     axis -2.45563e-014 -90 -90   XYZ
    dof rx rz
    limits (-90.0 90.0)
           (-45.0 45.0)
  end
  begin
     id 29
     name rfingers
     direction -1 -4.48953e-011 7.69687e-026   
     length 0.520971   
     axis -4.91126e-014 -90 -90   XYZ
    dof rx
    limits (0.0 90.0)
  end
  begin
     id 30
     name rthumb
     direction -0.707107 -6.3494e-011 0.707107   
     length 0.748013   
     axis -90 -45 -2.85299e-015   XYZ
    dof rx rz
    limits (-45.0 45.0)
           (-45.0 45.0)
  end
:hierarchy
  begin
    root lhipjoint rhipjoint lowerback
    lhipjoint lfemur
    lfemur ltibia
    ltibia lfoot
    lfoot ltoes
    rhipjoint rfemur
    rfemur rtibia
    rtibia rfoot
    rfoot rtoes
    lowerback upperback
    upperback thorax
    thorax lowerneck lclavicle rclavicle
    lowerneck upperneck
    upperneck head
    lclavicle lhumerus
    lhumerus lradius
    lradius lwrist
    lwrist lhand lthumb
    lhand lfingers
    rclavicle rhumerus
    rhumerus rradius
    rradius rwrist
    rwrist rhand rthumb
    rhand rfingers
  end

#!OML:ASF H:\HAZMAT1\Patient Classification 1\Patient 3\Session 1\dancer.ASF
:FULLY-SPECIFIED
:DEGREES
122
upperback 7.179980 -2.060050 10.907400
rfoot -28.966499 -16.826401
lradius 18.856701
lthumb -6.463340 70.444397
rradius 29.045099
lwrist -23.719601
rhand -47.689201 -57.711899
rhumerus 70.129501 9.403080 325.493988
lowerneck -10.482100 0.904841 -4.658270
lhand -33.258099 40.563000
ltibia 61.011299
head -0.509549 1.290160 2.232660
rwrist -7.215750
lfingers 7.125020
rtoes -11.821000
lowerback 20.226200 -3.259100 3.164970
rfingers 7.125020
lclavicle -0.000000 0.000000
upperneck -6.940600 2.074130 4.355110
rfemur -122.338997 -26.292101 24.918200
thorax -3.166150 -0.842046 10.660100
rclavicle -0.000000 0.000000
rtibia 97.077904
lfoot -17.102301 11.556600
lhumerus 72.540001 -1.978690 78.048599
rthumb -20.369699 273.335999
root -19.969900 15.268200 5.785710 418.742004 113.460999 690.403992
ltoes -8.630200
lfemur -101.105003 20.899401 -32.130901
123
upperback 6.383420 -10.324300 10.412600
rfoot -21.510599 5.576340
lradius 24.826700
lthumb -8.417280 76.671204
rradius 29.311399
lwrist -24.618299
rhand -56.056599 -83.646103
rhumerus 49.404499 1.395990 309.003998
lowerneck -6.359620 -1.139220 -10.858100
lhand -35.282398 46.858898
ltibia 79.089302
head 0.084321 -0.178947 3.155430
rwrist 5.843200
lfingers 7.125020
rtoes -19.593399
lowerback 26.887600 -9.589120 -1.752090
rfingers 7.125020
lclavicle -0.000000 -0.000000
upperneck -3.395930 -0.706362 3.877480
rfemur -115.366997 0.744719 45.699799
thorax -5.122750 -4.675510 15.053100
rclavicle -0.000000 -0.000000
rtibia 97.474297
lfoot -13.442700 -7.611510
lhumerus 60.546398 -19.797899 84.520203
rthumb -28.390301 111.513000
root -20.364300 12.696500 4.080380 368.548004 133.132996 657.942017
ltoes -21.311399
lfemur -94.876099 17.414600 -45.253899
124
upperback 0.476150 -21.156900 8.402400
rfoot 0.421260 -4.756560
lradius 22.189600
lthumb -7.113220 72.807404
rradius 43.338799
lwrist -24.765400
rhand -57.183800 -75.643204
rhumerus 11.689700 -2.599670 307.307007
lowerneck 1.331270 -4.419340 -11.321000
lhand -33.931301 42.946999
ltibia 106.164001
head 2.314790 -3.049680 3.724560
rwrist 11.384200
lfingers 7.125020
rtoes 13.018900
lowerback 20.744801 -17.463100 -0.363133
rfingers 7.125020
lclavicle 0.000000 0.000000
upperneck 6.055640 -5.939800 5.451490
rfemur -96.998100 -0.129366 33.677898
thorax -6.947160 -9.790440 14.520000
rclavicle 0.000000 0.000000
rtibia 37.752300
lfoot -21.350100 -15.357300
lhumerus 38.733101 -34.507099 97.293503
rthumb -29.466999 103.325996
root -20.638300 9.517770 2.988120 359.294006 164.865997 664.289001
ltoes -14.682700
lfemur -88.859100 13.984800 -48.128601
125
upperback -1.364100 -22.948000 8.816730
rfoot -1.740150 -10.333300
lradius 22.267500
lthumb -8.406600 72.569397
rradius 47.482601
lwrist -22.635700
rhand -56.176201 -67.639603
rhumerus 0.523358 -0.129275 313.076996
lowerneck 5.025710 -5.348310 -11.508300
lhand -35.271301 42.756699
ltibia 119.862999
head 2.166180 -3.843420 3.964710
rwrist 9.355540
lfingers 7.125020
rtoes 29.707001
lowerback 20.673201 -18.528299 -1.289300
rfingers 7.125020
lclavicle -0.000000 -0.000000
upperneck 7.608870 -7.565330 7.208230
rfemur -94.728104 -3.830010 34.432499
thorax -8.052930 -10.574500 16.024799
rclavicle -0.000000 -0.000000
rtibia 36.149799
lfoot -27.415001 -18.459000
lhumerus 30.959000 -36.894501 106.038002
rthumb -28.504601 95.487503
root -20.910500 8.244220 2.035940 357.750000 169.830994 670.122009
ltoes -17.334299
lfemur -90.602203 14.712400 -41.224998
126
upperback -0.272823 -22.966000 7.997470
rfoot 2.743570 -3.792300
lradius 22.537001
lthumb -8.681990 75.064796
rradius 43.657101
lwrist -23.100300
rhand -55.924900 -66.669098
rhumerus 10.713400 -3.898560 310.484009
lowerneck 3.506620 -4.062230 -12.607600
lhand -35.556702 45.263302
ltibia 115.521004
head 2.220370 -3.032490 4.949060
rwrist 11.401400
lfingers 7.125020
rtoes 4.899100
lowerback 17.774500 -19.014099 2.619190
rfingers 7.125020
lclavicle 0.000000 -0.000000
upperneck 7.176950 -5.948390 9.799530
rfemur -98.902603 -2.248260 29.303600
thorax -7.191550 -10.796400 12.379300
rclavicle 0.000000 -0.000000
rtibia 40.752602
lfoot -29.025700 -15.105800
lhumerus 37.702499 -35.980400 99.976097
rthumb -28.264500 94.556999
root -21.041201 9.085340 1.773570 359.739990 165.488998 665.184021
ltoes -20.059099
lfemur -89.209396 10.131100 -45.342899
127
upperback 2.459370 -17.843100 8.596970
rfoot -8.289610 17.322800
lradius 25.221600
lthumb -9.668430 78.295898
rradius 33.073200
lwrist -17.962601
rhand -55.793098 -71.619102
rhumerus 40.607498 -4.127980 310.623993
lowerneck 0.173757 -3.013670 -16.067301
lhand -36.578999 48.537800
ltibia 95.537804
head 1.933260 -2.174520 6.044060
rwrist 17.077999
lfingers 7.125020
rtoes -24.949600
lowerback 18.998100 -15.545000 3.756030
rfingers 7.125020
lclavicle -0.000000 0.000000
upperneck 4.657640 -4.243390 11.499200
rfemur -110.759003 -0.032116 13.760200
thorax -5.760350 -8.376290 11.399400
rclavicle -0.000000 0.000000
rtibia 96.074501
lfoot -24.321199 -18.883499
lhumerus 53.215900 -27.426300 85.314400
rthumb -28.138500 99.527702
root -20.924000 11.478500 1.615430 354.053009 145.460007 647.239014
ltoes -26.266600
lfemur -83.901398 4.502710 -45.998100
128
upperback 4.255170 -8.805430 4.937730
rfoot -29.793301 -21.436199
lradius 31.666500
lthumb -8.355950 80.695801
rradius 28.734100
lwrist -4.655110
rhand -56.465000 -77.549797
rhumerus 62.791801 -6.892690 316.044006
lowerneck -1.125440 -2.387000 -12.105800
lhand -35.218800 50.881100
ltibia 67.108597
head 0.230159 -1.495000 4.815550
rwrist 19.532900
lfingers 7.125020
rtoes -4.205820
lowerback 14.350700 -8.139100 8.173530
rfingers 7.125020
lclavicle 0.000000 0.000000
upperneck -0.985574 -3.044880 9.545510
rfemur -107.871002 -28.896099 12.373500
thorax -3.874610 -4.182880 2.252140
rclavicle 0.000000 0.000000
rtibia 108.647003
lfoot -6.803770 -15.284600
lhumerus 64.986900 -17.199699 70.145302
rthumb -28.780500 105.350998
root -19.700199 14.407500 1.425160 334.941986 124.250000 604.724976
ltoes -13.032100
lfemur -92.273201 -7.583900 -28.866301
129
upperback 5.846630 -1.150120 3.516780
rfoot -30.261101 -7.070550
lradius 35.475300
lthumb -7.047940 79.985199
rradius 30.776699
lwrist 5.814480
rhand -57.204601 -67.400002
rhumerus 70.733398 -4.247910 323.354004
lowerneck -0.038321 -2.769860 -8.103640
lhand -33.863602 50.122601
ltibia 71.051201
head -0.420770 -1.824780 3.710250
rwrist 25.263901
lfingers 7.125020
rtoes -26.736601
lowerback 16.130301 -1.347630 1.537380
rfingers 7.125020
lclavicle -0.000000 0.000000
upperneck -2.277770 -3.649870 6.978160
rfemur -144.556000 -22.530100 62.245602
thorax -2.777790 -0.505046 3.037250
rclavicle -0.000000 0.000000
rtibia 95.289497
lfoot 2.474400 -23.727200
lhumerus 61.355301 -11.332200 74.403503
rthumb -29.486799 95.079002
root -19.256500 14.291400 0.840306 291.691986 125.214996 558.909973
ltoes 3.579190
lfemur -91.303802 -3.399220 -24.090099
130
upperback 7.358650 1.867390 3.057880
rfoot -37.177399 -10.124600
lradius 30.344101
lthumb -3.920480 77.038101
rradius 49.779202
lwrist 6.532370
rhand -36.632702 -11.150600
rhumerus 68.352997 6.448560 324.183990
lowerneck -1.946670 -3.170870 -7.537320
lhand -30.624399 47.094398
ltibia 111.697998
head 1.827780 -2.085730 3.732700
rwrist 14.362300
lfingers 7.125020
rtoes -19.789700
lowerback 18.109900 1.434630 -1.383430
rfingers 7.125020
lclavicle -0.000000 -0.000000
upperneck 3.453440 -4.246730 7.558970
rfemur -134.119003 -19.683399 46.830601
thorax -2.394160 0.889736 3.651500
rclavicle -0.000000 -0.000000
rtibia 103.678001
lfoot -13.773200 -6.701070
lhumerus 49.473000 0.828739 84.011101
rthumb -9.720240 319.093994
root -19.964800 12.908600 -0.618180 254.848999 139.641006 535.651978
ltoes 6.938980
lfemur -98.039101 8.298630 -1.595660
131
upperback 7.257140 6.201130 3.978530
rfoot -29.028400 7.123780
lradius 28.675699
lthumb -1.341990 79.210899
rradius 35.022202
lwrist 12.969100
rhand -38.736401 -35.492802
rhumerus 50.401402 1.022210 294.566986
lowerneck -4.633650 -6.547070 -0.887068
lhand -27.954500 49.235298
ltibia 129.990005
head 4.103440 -4.279730 1.628930
rwrist 21.547199
lfingers 7.125020
rtoes -13.457500
lowerback 17.425900 4.890190 -1.509420
rfingers 7.125020
lclavicle 0.000000 0.000000
upperneck 8.882220 -9.163460 5.825190
rfemur -135.498001 -19.035299 39.440102
thorax -2.562090 2.948010 3.840210
rclavicle 0.000000 0.000000
rtibia 111.450996
lfoot -11.081800 -37.028301
lhumerus 29.613899 10.829100 90.852798
rthumb -11.749500 294.856995
root -19.495800 10.938000 -2.267460 233.255005 166.897003 526.203003
ltoes 8.277870
lfemur -85.602303 29.224701 12.859200
132
upperback 7.003010 9.510490 5.767180
rfoot -18.655199 -6.583690
lradius 25.639900
lthumb 2.758900 79.244301
rradius 16.705000
lwrist 20.286400
rhand -30.249599 -34.673901
rhumerus 40.579899 -1.502620 287.621002
lowerneck -6.214030 -7.294380 4.581350
lhand -23.708500 49.282398
ltibia 138.929993
head 3.086240 -4.908060 0.370531
rwrist 20.413500
lfingers 7.125020
rtoes -9.785850
lowerback 18.275000 7.368250 -0.743050
rfingers 7.125020
lclavicle -0.000000 -0.000000
upperneck 6.106970 -10.504300 5.028510
rfemur -136.466995 -8.427930 44.440102
thorax -3.718190 4.511160 4.480060
rclavicle -0.000000 -0.000000
rtibia 103.968002
lfoot -25.527901 -20.238899
lhumerus 17.710699 22.486200 91.874298
rthumb -3.558530 295.376007
root -18.347700 10.356900 -3.140170 232.287003 191.524994 517.263977
ltoes -6.936610
lfemur -76.668701 47.754002 -5.090170
133
upperback 7.042400 8.611250 8.362060
rfoot -17.500900 -20.815201
lradius 34.750702
lthumb 4.946220 82.719704
rradius 23.993601
lwrist 23.843201
rhand -32.506001 -33.858501
rhumerus 44.328300 20.565100 312.766998
lowerneck -6.158330 -6.684930 5.969020
lhand -21.443399 52.797401
ltibia 139.722000
head 0.887843 -4.689220 0.217568
rwrist 10.946300
lfingers 7.125020
rtoes 3.204040
lowerback 21.628700 5.857360 4.124100
rfingers 7.125020
lclavicle -0.000000 -0.000000
upperneck -0.238042 -9.467790 4.628780
rfemur -130.132004 -23.608000 43.841900
thorax -5.018490 3.970490 4.511900
rclavicle -0.000000 -0.000000
rtibia 116.875999
lfoot -23.645901 -22.563000
lhumerus 8.082260 26.957300 91.130203
rthumb -5.737290 296.239014
root -17.831900 10.223900 -3.371140 238.759003 198.214996 516.471008
ltoes -8.402690
lfemur -88.630203 47.886101 -19.822500
134
upperback 4.555970 6.971670 7.705240
rfoot 8.424510 -21.434700
lradius 56.232300
lthumb -15.482200 82.529900
rradius 29.922300
lwrist -18.137600
rhand -36.177101 -30.862200
rhumerus 41.528400 14.177400 301.191010
lowerneck -6.525110 -5.927510 10.118700
lhand -42.609402 53.129799
ltibia 133.973999
head 2.167070 -4.202170 -0.544214
rwrist 22.545900
lfingers 7.125020
rtoes 7.354160
lowerback 14.284600 4.521180 7.117310
rfingers 7.125020
lclavicle -0.000000 -0.000000
upperneck 4.039330 -9.044430 4.642800
rfemur -66.584000 -23.504499 -6.998730
thorax -3.257610 3.269210 2.979750
rclavicle -0.000000 -0.000000
rtibia 76.951302
lfoot -17.904400 -24.864500
lhumerus -0.777068 1.707220 83.105904
rthumb -9.280740 299.362000
root -17.705900 10.447400 -2.689830 250.638000 203.847000 520.526978
ltoes -0.149810
lfemur -98.669296 32.076099 -31.236000
135
upperback 3.637040 7.976980 6.010380
rfoot -25.071800 -29.285299
lradius 47.188801
lthumb -20.377199 77.618797
rradius 33.676498
lwrist -30.517799
rhand -37.316898 -30.842600
rhumerus 39.301800 11.942000 295.277008
lowerneck -6.706950 -4.829240 12.905500
lhand -47.696999 48.667900
ltibia 130.278000
head 3.424850 -3.453230 -1.133650
rwrist 29.459999
lfingers 7.125020
rtoes -21.961500
lowerback 13.096800 5.390910 6.800880
rfingers 7.125020
lclavicle 0.000000 0.000000
upperneck 7.800350 -8.150380 4.458890
rfemur -44.935902 -9.761850 -15.818800
thorax -3.389940 3.768790 1.276130
rclavicle 0.000000 0.000000
rtibia 38.134998
lfoot -17.602100 -23.574600
lhumerus 23.622400 -10.514300 68.630302
rthumb -10.380300 299.433990
root -18.001600 10.542400 -2.152180 258.352997 209.705002 519.568970
ltoes 1.796790
lfemur -101.401001 29.471600 -37.930099
